<?xml version="1.0" encoding="utf-8"?>
<!-- Generator: Adobe Illustrator 19.1.0, SVG Export Plug-In . SVG Version: 6.00 Build 0)  -->
<svg version="1.1" xmlns="http://www.w3.org/2000/svg" xmlns:xlink="http://www.w3.org/1999/xlink" x="0px" y="0px"
	 viewBox="0 0 1024 614.7" style="enable-background:new 0 0 1024 614.7;" xml:space="preserve">
<style type="text/css">
	.st0{opacity:0.47;fill:#FFC7BB;}
	.st1{fill:#ECF0F1;}
	.st2{opacity:0.5;fill:#773C0C;}
	.st3{opacity:0.22;}
	.st4{fill:#34495E;}
	.st5{fill:#16A085;}
	.st6{fill:#E67E22;}
	.st7{opacity:0.8;}
	.st8{opacity:0.61;}
	.st9{opacity:0.54;fill:#7F8C8D;}
	.st10{opacity:0.52;}
	.st11{clip-path:url(#SVGID_2_);fill:#BDC3C7;}
	.st12{fill:#7F8C8D;}
	
	
        .em {
            fill:#666666;
			font-size:13mm;
        }
    
</style>
	
	
<g id="Layer_1">
	<rect x="0" class="st0" width="1024" height="614.7"/>
	<g>
		<ellipse class="st1" cx="863" cy="333.6" rx="56.3" ry="54.9"/>
		<ellipse class="st2" cx="863.2" cy="333.4" rx="42" ry="41"/>
		<path class="st3" d="M853.5,314.2c23.2,0,42,18.3,42,41c0,1.6-0.1,3.1-0.3,4.7c6.2-7.1,10-16.4,10-26.5c0-22.6-18.8-41-42-41
			c-21.6,0-39.4,15.9-41.7,36.3C829.2,319.8,840.7,314.2,853.5,314.2z"/>
		<path class="st1" d="M929.4,377.2l-6.4,7.5c-1.1,1.2-2.9,1.4-4.2,0.3l-22.7-19.3c-1.2-1.1-1.4-2.9-0.3-4.2l6.4-7.5
			c1.1-1.2,2.9-1.4,4.2-0.3L929,373C930.3,374.1,930.4,376,929.4,377.2z"/>
	</g>
	<g>
		<g>
			<g>
				
					<rect x="298.5" y="397.1" transform="matrix(0.431 -0.9024 0.9024 0.431 -244.0363 536.4257)" class="st4" width="9.7" height="129.3"/>
				
					<rect x="302.6" y="396" transform="matrix(0.431 -0.9024 0.9024 0.431 -242.7575 536.2754)" class="st5" width="2.4" height="129.3"/>
			</g>
			<polygon class="st1" points="247.3,429.5 243.1,438.3 235,429.1 			"/>
			<polygon class="st6" points="240.9,429.1 238.9,433.5 234.6,428.8 			"/>
		</g>
		<g>
			<g>
				<g class="st7">
					<path class="st4" d="M167.8,218.3c-1.6-3.8-6.1-5.6-9.9-4l-95.5,40.8c-3.8,1.6-5.6,6.1-4,9.9l55.9,130.7c1.6,3.8,6.1,5.6,9.9,4
						l95.5-40.8c3.8-1.6,5.6-6.1,4-9.9L167.8,218.3z M216.4,350.7l-97.3,41.6L63,261.2l97.3-41.6L216.4,350.7z"/>
					
						<rect x="86.8" y="234.7" transform="matrix(-0.9195 0.393 -0.393 -0.9195 388.4407 532.4279)" class="st1" width="105.8" height="142.6"/>
					<path class="st5" d="M171.2,378.6l-2.9,1.2c-0.9,0.4-2.1,0-2.5-1l-0.9-2.2c-0.4-0.9,0-2.1,1-2.5l2.9-1.2c0.9-0.4,2.1,0,2.5,1
						l0.9,2.2C172.5,377.1,172.1,378.2,171.2,378.6z"/>
				</g>
			</g>
		</g>
		<g>
			<path class="st8" d="M190.2,522.1l-41.8-0.2c-4.1,0-7.5-3.4-7.5-7.6l0.4-99.7c0-4.1,3.4-7.5,7.6-7.5l41.8,0.2
				c4.1,0,7.5,3.4,7.5,7.6l-0.4,99.7C197.7,518.8,194.3,522.2,190.2,522.1z"/>
			
				<rect x="146.9" y="417.6" transform="matrix(1 3.615147e-03 -3.615147e-03 1 1.6756 -0.6097)" class="st1" width="45.2" height="91.1"/>
			<circle class="st1" cx="169.8" cy="411.2" r="1.5"/>
			<circle class="st1" cx="168" cy="515.6" r="3.6"/>
			<path class="st1" d="M179.8,415.8l-20.2-0.1c-0.2,0-0.4-0.2-0.4-0.4l0-1.2c0-0.2,0.2-0.4,0.4-0.4l20.2,0.1c0.2,0,0.4,0.2,0.4,0.4
				l0,1.2C180.2,415.6,180,415.8,179.8,415.8z"/>

		</g>
	</g>
</g>
<g id="Layer_2">
	<g id="laptop_1_"> 
		<path class="st9" d="M760,393.8H291.2c-3.7,0-6.8-3-6.8-6.8V125.2c0-3.7,3-6.8,6.8-6.8H760c3.7,0,6.8,3,6.8,6.8V387
			C766.7,390.7,763.7,393.8,760,393.8z"/>
		<g class="st10">
			<defs>
				<path id="SVGID_1_" class="st10" d="M764.6,164.4l-479.2,191c-4.3,1.7-8.9-1.5-8.7-6.1l7.8-229.4c0.1-3.4,2.9-6.1,6.3-6.1h469.5
					c3.4,0,6.2,2.7,6.3,6l1.9,38.4C768.7,160.9,767.1,163.4,764.6,164.4z"/>
			</defs>
			<clipPath id="SVGID_2_">
				<use xlink:href="#SVGID_1_"  style="overflow:visible;"/>
			</clipPath>
			<path class="st11" d="M744.9,378.5L308.7,381c-13.3,0.1-24.1-10.6-24.2-23.9l-1.2-209.5c-0.1-13.3,13.9-29.5,27.2-29.6l432.9,0
				c13.3-0.1,24.1,10.6,24.2,23.9l1.2,212.4C768.9,367.6,758.2,378.4,744.9,378.5z"/>
		</g>
		<rect x="436" y="273.4" class="st1" width="173.9" height="92"/>
		<g>
			<g>
				<rect x="693.8" y="135.5" class="st1" width="35.6" height="15.5"/>
			</g>
			<g>
				<rect x="655.1" y="135.5" class="st1" width="35.6" height="15.5"/>
			</g>
			<g>
				<rect x="616.4" y="135.5" class="st1" width="35.6" height="15.5"/>
			</g>
			<g>
				<rect x="577.6" y="135.5" class="st1" width="35.6" height="15.5"/>
			</g>
			<g>
				<rect x="538.9" y="135.5" class="st1" width="35.6" height="15.5"/>
			</g>
			<g>
				<rect x="500.2" y="135.5" class="st1" width="35.6" height="15.5"/>
			</g>
			<g>
				<rect x="461.4" y="135.5" class="st1" width="35.6" height="15.5"/>
			</g>
			<g>
				<rect x="422.7" y="135.5" class="st1" width="35.6" height="15.5"/>
			</g>
			<g>
				<rect x="384" y="135.5" class="st1" width="35.6" height="15.5"/>
			</g>
			<g>
				<rect x="345.2" y="135.5" class="st1" width="35.6" height="15.5"/>
			</g>
			<g>
				<rect x="306.5" y="135.5" class="st1" width="35.6" height="15.5"/>
			</g>
		</g>
		<g>
			<g>
				<rect x="655.1" y="156.5" class="st1" width="74.4" height="18.6"/>
			</g>
			<g>
				<rect x="655.1" y="156.5" class="st1" width="35.6" height="18.6"/>
			</g>
			<g>
				<rect x="616.4" y="156.5" class="st1" width="35.6" height="18.6"/>
			</g>
			<g>
				<rect x="577.6" y="156.5" class="st1" width="35.6" height="18.6"/>
			</g>
			<g>
				<rect x="538.9" y="156.5" class="st1" width="35.6" height="18.6"/>
			</g>
			<g>
				<rect x="500.2" y="156.5" class="st1" width="35.6" height="18.6"/>
			</g>
			<g>
				<rect x="461.4" y="156.5" class="st1" width="35.6" height="18.6"/>
			</g>
			<g>
				<rect x="422.7" y="156.5" class="st1" width="35.6" height="18.6"/>
			</g>
			<g>
				<rect x="384" y="156.5" class="st1" width="35.6" height="18.6"/>
			</g>
			<g>
				<rect x="345.2" y="156.5" class="st1" width="35.6" height="18.6"/>
			</g>
			<g>
				<rect x="306.5" y="156.5" class="st1" width="35.6" height="18.6"/>
			</g>
		</g>
		<g>
			<g>
				<rect x="680.4" y="180.8" class="st1" width="49" height="18.6"/>
			</g>
			<g>
				<rect x="638" y="180.8" class="st1" width="35.6" height="18.6"/>
			</g>
			<g>
				<rect x="597.6" y="180.8" class="st1" width="35.6" height="18.6"/>
			</g>
			<g>
				<rect x="557.9" y="180.8" class="st1" width="35.6" height="18.6"/>
			</g>
			<g>
				<rect x="517.7" y="180.8" class="st1" width="35.6" height="18.6"/>
			</g>
			<g>
				<rect x="479" y="180.8" class="st1" width="35.6" height="18.6"/>
			</g>
			<g>
				<rect x="439.5" y="180.8" class="st1" width="35.6" height="18.6"/>
			</g>
			<g>
				<rect x="399.7" y="180.8" class="st1" width="35.6" height="18.6"/>
			</g>
			<g>
				<rect x="360.4" y="180.8" class="st1" width="35.7" height="18.6"/>
			</g>
			<g>
				<rect x="306.5" y="180.8" class="st1" width="45.7" height="18.6"/>
			</g>
		</g>
		<g>
			<g>
				<rect x="655.1" y="203.7" class="st1" width="74.4" height="18.6"/>
			</g>
			<g>
				<rect x="655.1" y="203.7" class="st1" width="35.6" height="18.6"/>
			</g>
			<g>
				<rect x="614.9" y="203.7" class="st1" width="35.6" height="18.6"/>
			</g>
			<g>
				<rect x="574.6" y="203.7" class="st1" width="35.6" height="18.6"/>
			</g>
			<g>
				<rect x="535.9" y="203.7" class="st1" width="35.6" height="18.6"/>
			</g>
			<g>
				<rect x="496.4" y="203.7" class="st1" width="35.6" height="18.6"/>
			</g>
			<g>
				<rect x="457.7" y="203.7" class="st1" width="35.6" height="18.6"/>
			</g>
			<g>
				<rect x="418.2" y="203.7" class="st1" width="35.6" height="18.6"/>
			</g>
			<g>
				<rect x="371.7" y="203.7" class="st1" width="40.2" height="18.6"/>
			</g>
			<g>
				<rect x="306.5" y="203.7" class="st1" width="58.1" height="18.6"/>
			</g>
		</g>
		<g>
			<g>
				<rect x="693.6" y="227.6" class="st1" width="35.6" height="18.6"/>
			</g>
			<g>
				<rect x="652" y="227.6" class="st1" width="35.6" height="18.6"/>
			</g>
			<g>
				<rect x="607.9" y="227.6" class="st1" width="37.9" height="18.6"/>
			</g>
			<g>
				<rect x="564.3" y="227.6" class="st1" width="35.6" height="18.6"/>
			</g>
			<g>
				<rect x="525.6" y="227.6" class="st1" width="35.6" height="18.6"/>
			</g>
			<g>
				<rect x="486.1" y="227.6" class="st1" width="35.6" height="18.6"/>
			</g>
			<g>
				<rect x="447.4" y="227.6" class="st1" width="35.6" height="18.6"/>
			</g>
			<g>
				<rect x="411.2" y="227.6" class="st1" width="192" height="18.6"/>
			</g>
			<g>
				<rect x="342.1" y="227.6" class="st1" width="28.6" height="18.6"/>
			</g>
			<g>
				<rect x="375.3" y="227.6" class="st1" width="28.6" height="18.6"/>
			</g>
			<g>
				<rect x="306.3" y="227.6" class="st1" width="33" height="18.6"/>
			</g>
		</g>
		<path class="st1" d="M773.2,118H278.4c-2.6,0-4.7-2.1-4.7-4.7v-11c0-2.6,2.1-4.7,4.7-4.7h494.8c2.6,0,4.7,2.1,4.7,4.7v11
			C777.9,115.9,775.8,118,773.2,118z"/>
	</g>
	
		<text x="70" y="88"  style="font-family: Raleway, sans-serif;
                 font-size  : 25;
				 font-weight : 200;
			
            
                 fill       : gray;

                "
		  >UX/UI Designer + Developer
		<tspan class="em" x="70" y="58">Hi, I'm Pravi</tspan>
      </text>
	
	

	<g id="mouse_2_">
		<path class="st1" d="M831.9,439.3H827v108h4.9c15.5,0,28.1-13.1,28.1-28.7v-50.9C860,452.3,847.5,439.3,831.9,439.3z"/>
		<path class="st12" d="M824.9,439.3h2.1v108h-2.1c-15.5,0-27.9-13.1-27.9-28.7v-50.9C797,452.3,809.4,439.3,824.9,439.3z"/>
		<ellipse cx="828.9" cy="454.9" rx="6" ry="5.7"/>
	</g>
	<g>
	</g>
	<g>
	</g>
	<g>
	</g>
	<g>
	</g>
	<g>
	</g>
	<g>
	</g>
	<g>
	</g>
	<g>
	</g>
	<g>
	</g>
	<g>
	</g>
	<g>
	</g>
	<g>
	</g>
	<g>
	</g>
	<g>
	</g>
	<g>
	</g>
</g>
</svg>
