<?xml version="1.0" encoding="utf-8"?>
<!-- Generator: Adobe Illustrator 21.1.0, SVG Export Plug-In . SVG Version: 6.00 Build 0)  -->
<svg version="1.1" id="Layer_1" xmlns="http://www.w3.org/2000/svg" xmlns:xlink="http://www.w3.org/1999/xlink" x="0px" y="0px"
	 viewBox="0 0 1024 503" style="enable-background:new 0 0 1024 503;" xml:space="preserve">
<style type="text/css">
	.st0{opacity:0.33;fill:#142D84;enable-background:new    ;}
	.st1{opacity:0.51;fill:#142D84;enable-background:new    ;}
	.st2{opacity:0.45;}
	.st3{fill:#FF1D00;}
	.st4{opacity:0.5;fill:#FFFFFF;enable-background:new    ;}
	.st5{opacity:0.22;fill:#FF1D00;enable-background:new    ;}
	.st6{opacity:0.41;}
	.st7{opacity:0.36;fill:#BCB5AD;}
	.st8{opacity:0.61;fill:#FF1D00;enable-background:new    ;}
	.st9{opacity:0.27;fill:#BCB5AD;}
	.st10{fill:none;}
	.st11{fill:#252A34;}
	.st12{font-family:'HelveticaNeue';}
	.st13{font-size:48px;}
	.st14{opacity:0.54;fill:#E3E1DB;enable-background:new    ;}
	.st15{opacity:0.52;enable-background:new    ;}
	.st16{clip-path:url(#SVGID_2_);fill:#BDC3C7;}
	.st17{fill:#ECF0F1;}
	.st18{opacity:0.43;}
	.st19{fill:#7F8C8D;}
	.st20{fill:#E6F6F9;}
	.st21{font-family:'Raleway-Medium';}
</style>
<g id="Layer_1_1_">
	<rect x="488" y="248" class="st0" width="536" height="257.7"/>
	<rect y="1" class="st1" width="488" height="246"/>
	<g class="st2">
		
			<ellipse transform="matrix(0.9857 -0.1685 0.1685 0.9857 -9.3377 158.9661)" class="st3" cx="932.1" cy="134.5" rx="56.3" ry="54.9"/>
		<ellipse transform="matrix(0.9857 -0.1685 0.1685 0.9857 -9.2964 158.9903)" class="st4" cx="932.2" cy="134.3" rx="42" ry="41"/>
		<path class="st5" d="M919.4,117c22.9-3.9,44.5,11,48.3,33.3c0.3,1.6,0.4,3.1,0.5,4.7c4.9-8,7.1-17.9,5.4-27.8
			c-3.8-22.3-25.4-37.2-48.3-33.3c-21.3,3.6-36.2,22.3-35,42.8C896.4,126.6,906.8,119.1,919.4,117z"/>
		<path class="st3" d="M1004.9,166.3l-5,8.5c-0.9,1.4-2.6,1.9-4.1,1l-25.6-15.2c-1.4-0.9-1.9-2.6-1-4.1l5-8.5c0.9-1.4,2.6-1.9,4.1-1
			l25.5,15.2C1005.2,163.1,1005.7,164.9,1004.9,166.3z"/>
	</g>
	<g class="st2">
		<g>
			
				<rect x="288.5" y="311" transform="matrix(0.431 -0.9024 0.9024 0.431 -172.0694 478.5229)" class="st3" width="9.7" height="129.3"/>
			
				<rect x="292.7" y="310" transform="matrix(0.431 -0.9024 0.9024 0.431 -170.8663 478.3698)" class="st3" width="2.4" height="129.3"/>
		</g>
		<polygon class="st3" points="237.3,343.5 233.1,352.3 225,343.1 		"/>
		<polygon class="st3" points="230.9,343.1 228.9,347.5 224.6,342.8 		"/>
	</g>
	<g class="st6">
		<path class="st3" d="M189.8,149.3c-1.6-3.8-6.1-5.6-9.9-4l-95.5,40.8c-3.8,1.6-5.6,6.1-4,9.9l55.9,130.7c1.6,3.8,6.1,5.6,9.9,4
			l95.5-40.8c3.8-1.6,5.6-6.1,4-9.9L189.8,149.3z M238.4,281.7l-97.3,41.6L85,192.2l97.3-41.6L238.4,281.7z"/>
		
			<rect x="108.8" y="165.7" transform="matrix(0.9195 -0.393 0.393 0.9195 -80.1159 82.6294)" class="st7" width="105.8" height="142.6"/>
		<path class="st3" d="M193.2,309.6l-2.9,1.2c-0.9,0.4-2.1,0-2.5-1l-0.9-2.2c-0.4-0.9,0-2.1,1-2.5l2.9-1.2c0.9-0.4,2.1,0,2.5,1
			l0.9,2.2C194.5,308.1,194.1,309.2,193.2,309.6z"/>
	</g>
	<g class="st2">
		<path class="st8" d="M89.2,454.1l-41.8-0.2c-4.1,0-7.5-3.4-7.5-7.6l0.4-99.7c0-4.1,3.4-7.5,7.6-7.5l41.8,0.2
			c4.1,0,7.5,3.4,7.5,7.6l-0.4,99.7C96.7,450.8,93.3,454.2,89.2,454.1z"/>
		
			<rect x="23" y="372.6" transform="matrix(3.615123e-03 -1 1 3.615123e-03 -326.8969 462.2253)" class="st9" width="91.1" height="45.2"/>
		<circle class="st3" cx="68.8" cy="343.2" r="1.5"/>
		<circle class="st3" cx="67" cy="447.6" r="3.6"/>
		<path class="st3" d="M78.8,347.8l-20.2-0.1c-0.2,0-0.4-0.2-0.4-0.4v-1.2c0-0.2,0.2-0.4,0.4-0.4l20.2,0.1c0.2,0,0.4,0.2,0.4,0.4
			v1.2C79.2,347.6,79,347.8,78.8,347.8z"/>
	</g>
</g>
<rect x="35" y="35" class="st10" width="294" height="115"/>
<text transform="matrix(1 0 0 1 35 69.2715)"><tspan x="0" y="0" class="st11 st12 st13">PRAVI </tspan><tspan x="0" y="40" class="st11 st12 st13">SHRESTHA</tspan></text>
<g id="Layer_2">
	<g id="laptop_1_">
		<path class="st14" d="M817.7,331.4L349.4,353c-3.7,0.2-6.9-2.7-7.1-6.5L330.3,85c-0.2-3.7,2.7-6.9,6.5-7.1l468.3-21.6
			c3.7-0.2,6.9,2.7,7.1,6.5l12,261.5C824.3,328,821.4,331.3,817.7,331.4z"/>
		<g class="st15">
			<g>
				<defs>
					<path id="SVGID_1_" d="M811.8,102.1L341.9,314.9c-4.2,1.9-9-1.1-9-5.7l-2.8-229.5c-0.1-3.4,2.6-6.2,6-6.4l469-21.6
						c3.4-0.2,6.3,2.4,6.6,5.7l3.7,38.3C815.7,98.4,814.2,101,811.8,102.1z"/>
				</defs>
				<clipPath id="SVGID_2_">
					<use xlink:href="#SVGID_1_"  style="overflow:visible;"/>
				</clipPath>
				<path class="st16" d="M801.9,316.9l-435.6,22.6c-13.3,0.7-24.6-9.5-25.3-22.8l-10.8-209.2c-0.7-13.3,12.5-30.1,25.8-30.8
					l432.4-19.9c13.3-0.7,24.6,9.5,25.3,22.8l11,212.1C825.4,304.9,815.2,316.1,801.9,316.9z"/>
			</g>
		</g>
		
			<rect x="490.6" y="222" transform="matrix(0.9989 -4.601891e-02 4.601891e-02 0.9989 -11.7227 26.8603)" class="st17" width="173.9" height="92"/>
		<g>
			<g>
				
					<rect x="740.1" y="75.6" transform="matrix(0.9989 -4.601891e-02 4.601891e-02 0.9989 -3.0345 34.9639)" class="st17" width="35.6" height="15.5"/>
			</g>
			<g>
				
					<rect x="701.4" y="77.4" transform="matrix(0.9989 -4.601891e-02 4.601891e-02 0.9989 -3.1574 33.1867)" class="st17" width="35.6" height="15.5"/>
			</g>
			<g>
				
					<rect x="662.7" y="79.2" transform="matrix(0.9989 -4.601891e-02 4.601891e-02 0.9989 -3.2803 31.4096)" class="st17" width="35.6" height="15.5"/>
			</g>
			<g>
				
					<rect x="624" y="81" transform="matrix(0.9989 -4.601891e-02 4.601891e-02 0.9989 -3.4035 29.6278)" class="st17" width="35.6" height="15.5"/>
			</g>
			<g>
				
					<rect x="585.3" y="82.8" transform="matrix(0.9989 -4.601891e-02 4.601891e-02 0.9989 -3.5265 27.8507)" class="st17" width="35.6" height="15.5"/>
			</g>
			<g>
				
					<rect x="546.7" y="84.5" transform="matrix(0.9989 -4.601891e-02 4.601891e-02 0.9989 -3.6494 26.0735)" class="st17" width="35.6" height="15.5"/>
			</g>
			<g>
				
					<rect x="507.9" y="86.3" transform="matrix(0.9989 -4.601891e-02 4.601891e-02 0.9989 -3.7726 24.2918)" class="st17" width="35.6" height="15.5"/>
			</g>
			<g>
				
					<rect x="469.2" y="88.1" transform="matrix(0.9989 -4.601891e-02 4.601891e-02 0.9989 -3.8955 22.5146)" class="st17" width="35.6" height="15.5"/>
			</g>
			<g>
				
					<rect x="430.6" y="89.9" transform="matrix(0.9989 -4.601891e-02 4.601891e-02 0.9989 -4.0184 20.7374)" class="st17" width="35.6" height="15.5"/>
			</g>
			<g>
				
					<rect x="391.8" y="91.7" transform="matrix(0.9989 -4.601891e-02 4.601891e-02 0.9989 -4.1417 18.9557)" class="st17" width="35.6" height="15.5"/>
			</g>
			<g>
				
					<rect x="353.2" y="93.5" transform="matrix(0.9989 -4.601891e-02 4.601891e-02 0.9989 -4.2646 17.1785)" class="st17" width="35.6" height="15.5"/>
			</g>
		</g>
		<g>
			<g>
				
					<rect x="702.4" y="97.5" transform="matrix(0.9989 -4.601891e-02 4.601891e-02 0.9989 -4.1313 34.1492)" class="st17" width="74.4" height="18.6"/>
			</g>
			<g>
				
					<rect x="702.4" y="98.4" transform="matrix(0.9989 -4.601891e-02 4.601891e-02 0.9989 -4.1929 33.2583)" class="st17" width="35.6" height="18.6"/>
			</g>
			<g>
				
					<rect x="663.8" y="100.2" transform="matrix(0.9989 -4.601891e-02 4.601891e-02 0.9989 -4.3158 31.4812)" class="st17" width="35.6" height="18.6"/>
			</g>
			<g>
				
					<rect x="625" y="102" transform="matrix(0.9989 -4.601891e-02 4.601891e-02 0.9989 -4.4391 29.6994)" class="st17" width="35.6" height="18.6"/>
			</g>
			<g>
				
					<rect x="586.4" y="103.7" transform="matrix(0.9989 -4.601891e-02 4.601891e-02 0.9989 -4.562 27.9223)" class="st17" width="35.6" height="18.6"/>
			</g>
			<g>
				
					<rect x="547.7" y="105.5" transform="matrix(0.9989 -4.601891e-02 4.601891e-02 0.9989 -4.6849 26.1451)" class="st17" width="35.6" height="18.6"/>
			</g>
			<g>
				
					<rect x="508.9" y="107.3" transform="matrix(0.9989 -4.601891e-02 4.601891e-02 0.9989 -4.8081 24.3634)" class="st17" width="35.6" height="18.6"/>
			</g>
			<g>
				
					<rect x="470.3" y="109.1" transform="matrix(0.9989 -4.601891e-02 4.601891e-02 0.9989 -4.931 22.5862)" class="st17" width="35.6" height="18.6"/>
			</g>
			<g>
				
					<rect x="431.6" y="110.9" transform="matrix(0.9989 -4.601891e-02 4.601891e-02 0.9989 -5.0539 20.8091)" class="st17" width="35.6" height="18.6"/>
			</g>
			<g>
				
					<rect x="392.9" y="112.7" transform="matrix(0.9989 -4.601891e-02 4.601891e-02 0.9989 -5.1772 19.0273)" class="st17" width="35.6" height="18.6"/>
			</g>
			<g>
				
					<rect x="354.2" y="114.4" transform="matrix(0.9989 -4.601891e-02 4.601891e-02 0.9989 -5.3001 17.2501)" class="st17" width="35.6" height="18.6"/>
			</g>
		</g>
		<g>
			<g>
				
					<rect x="728.8" y="121.2" transform="matrix(0.9989 -4.601891e-02 4.601891e-02 0.9989 -5.2072 34.805)" class="st17" width="49" height="18.6"/>
			</g>
			<g>
				
					<rect x="686.5" y="123.5" transform="matrix(0.9989 -4.601891e-02 4.601891e-02 0.9989 -5.3631 32.5503)" class="st17" width="35.6" height="18.6"/>
			</g>
			<g>
				
					<rect x="646.1" y="125.3" transform="matrix(0.9989 -4.601891e-02 4.601891e-02 0.9989 -5.4914 30.695)" class="st17" width="35.6" height="18.6"/>
			</g>
			<g>
				
					<rect x="606.5" y="127.1" transform="matrix(0.9989 -4.601891e-02 4.601891e-02 0.9989 -5.6175 28.872)" class="st17" width="35.6" height="18.6"/>
			</g>
			<g>
				
					<rect x="566.3" y="129" transform="matrix(0.9989 -4.601891e-02 4.601891e-02 0.9989 -5.7452 27.0259)" class="st17" width="35.6" height="18.6"/>
			</g>
			<g>
				
					<rect x="527.6" y="130.8" transform="matrix(0.9989 -4.601891e-02 4.601891e-02 0.9989 -5.8681 25.2488)" class="st17" width="35.6" height="18.6"/>
			</g>
			<g>
				
					<rect x="488.2" y="132.6" transform="matrix(0.9989 -4.601891e-02 4.601891e-02 0.9989 -5.9936 23.4349)" class="st17" width="35.6" height="18.6"/>
			</g>
			<g>
				
					<rect x="448.4" y="134.4" transform="matrix(0.9989 -4.601891e-02 4.601891e-02 0.9989 -6.12 21.6072)" class="st17" width="35.6" height="18.6"/>
			</g>
			<g>
				
					<rect x="409.2" y="136.2" transform="matrix(0.9989 -4.601891e-02 4.601891e-02 0.9989 -6.2446 19.8048)" class="st17" width="35.7" height="18.6"/>
			</g>
			<g>
				
					<rect x="355.3" y="138.5" transform="matrix(0.9989 -4.601891e-02 4.601891e-02 0.9989 -6.3999 17.5592)" class="st17" width="45.7" height="18.6"/>
			</g>
		</g>
		<g>
			<g>
				
					<rect x="704.6" y="144.7" transform="matrix(0.9989 -4.601891e-02 4.601891e-02 0.9989 -6.2988 34.2991)" class="st17" width="74.4" height="18.6"/>
			</g>
			<g>
				
					<rect x="704.6" y="145.5" transform="matrix(0.9989 -4.601891e-02 4.601891e-02 0.9989 -6.3604 33.4083)" class="st17" width="35.6" height="18.6"/>
			</g>
			<g>
				
					<rect x="664.4" y="147.4" transform="matrix(0.9989 -4.601891e-02 4.601891e-02 0.9989 -6.4881 31.5622)" class="st17" width="35.6" height="18.6"/>
			</g>
			<g>
				
					<rect x="624.2" y="149.2" transform="matrix(0.9989 -4.601891e-02 4.601891e-02 0.9989 -6.6161 29.7116)" class="st17" width="35.6" height="18.6"/>
			</g>
			<g>
				
					<rect x="585.5" y="151" transform="matrix(0.9989 -4.601891e-02 4.601891e-02 0.9989 -6.739 27.9344)" class="st17" width="35.6" height="18.6"/>
			</g>
			<g>
				
					<rect x="546.1" y="152.8" transform="matrix(0.9989 -4.601891e-02 4.601891e-02 0.9989 -6.8645 26.1205)" class="st17" width="35.6" height="18.6"/>
			</g>
			<g>
				
					<rect x="507.4" y="154.6" transform="matrix(0.9989 -4.601891e-02 4.601891e-02 0.9989 -6.9874 24.3434)" class="st17" width="35.6" height="18.6"/>
			</g>
			<g>
				
					<rect x="468" y="156.4" transform="matrix(0.9989 -4.601891e-02 4.601891e-02 0.9989 -7.1128 22.5295)" class="st17" width="35.6" height="18.6"/>
			</g>
			<g>
				
					<rect x="421.5" y="158.5" transform="matrix(0.9989 -4.601891e-02 4.601891e-02 0.9989 -7.2532 20.4998)" class="st17" width="40.2" height="18.6"/>
			</g>
			<g>
				
					<rect x="356.4" y="161.1" transform="matrix(0.9989 -4.601891e-02 4.601891e-02 0.9989 -7.4319 17.9167)" class="st17" width="58.1" height="18.6"/>
			</g>
		</g>
		<g>
			<g>
				
					<rect x="744.2" y="167.6" transform="matrix(0.9989 -4.601891e-02 4.601891e-02 0.9989 -7.3357 35.2521)" class="st17" width="35.6" height="18.6"/>
			</g>
			<g>
				
					<rect x="702.6" y="169.6" transform="matrix(0.9989 -4.601891e-02 4.601891e-02 0.9989 -7.4678 33.3418)" class="st17" width="35.6" height="18.6"/>
			</g>
			<g>
				
					<rect x="658.6" y="171.5" transform="matrix(0.9989 -4.601891e-02 4.601891e-02 0.9989 -7.6042 31.3695)" class="st17" width="37.9" height="18.6"/>
			</g>
			<g>
				
					<rect x="615" y="173.6" transform="matrix(0.9989 -4.601891e-02 4.601891e-02 0.9989 -7.7463 29.3145)" class="st17" width="35.6" height="18.6"/>
			</g>
			<g>
				
					<rect x="576.3" y="175.4" transform="matrix(0.9989 -4.601891e-02 4.601891e-02 0.9989 -7.8692 27.5373)" class="st17" width="35.6" height="18.6"/>
			</g>
			<g>
				
					<rect x="536.9" y="177.2" transform="matrix(0.9989 -4.601891e-02 4.601891e-02 0.9989 -7.9947 25.7234)" class="st17" width="35.6" height="18.6"/>
			</g>
			<g>
				
					<rect x="498.2" y="179" transform="matrix(0.9989 -4.601891e-02 4.601891e-02 0.9989 -8.1176 23.9463)" class="st17" width="35.6" height="18.6"/>
			</g>
			<g>
				
					<rect x="462" y="177" transform="matrix(0.9989 -4.601891e-02 4.601891e-02 0.9989 -7.9842 25.875)" class="st17" width="192" height="18.6"/>
			</g>
			<g>
				
					<rect x="393" y="184" transform="matrix(0.9989 -4.601891e-02 4.601891e-02 0.9989 -8.4632 18.95)" class="st17" width="28.6" height="18.6"/>
			</g>
			<g>
				
					<rect x="426.2" y="182.5" transform="matrix(0.9989 -4.601891e-02 4.601891e-02 0.9989 -8.3577 20.4746)" class="st17" width="28.6" height="18.6"/>
			</g>
			<g>
				
					<rect x="357.3" y="185.5" transform="matrix(0.9989 -4.601891e-02 4.601891e-02 0.9989 -8.5699 17.4071)" class="st17" width="33" height="18.6"/>
			</g>
		</g>
		<path class="st17" d="M818.2,55.3L323.9,78.1c-2.6,0.1-4.8-1.9-4.9-4.5l-0.5-11c-0.1-2.6,1.9-4.8,4.5-4.9L817.3,35
			c2.6-0.1,4.8,1.9,4.9,4.5l0.5,11C822.8,53,820.8,55.2,818.2,55.3z"/>
	</g>
	<g id="mouse_2_" class="st18">
		<path class="st17" d="M961.4,322.3l-4.9,0.2l5,107.9l4.9-0.2c15.5-0.7,27.5-14.4,26.7-30l-2.3-50.8
			C990,334,976.9,321.6,961.4,322.3z"/>
		<path class="st19" d="M954.4,322.6l2.1-0.1l5,107.9l-2.1,0.1c-15.5,0.7-28.5-11.8-29.2-27.4l-2.3-50.8
			C927.1,336.9,938.9,323.4,954.4,322.6z"/>
		<ellipse transform="matrix(0.9989 -4.601891e-02 4.601891e-02 0.9989 -14.5404 44.4942)" cx="959.1" cy="338" rx="6" ry="5.7"/>
	</g>
</g>
<g>
	<text transform="matrix(1 0 0 1 509 424)" class="st20 st21 st13">VISUAL/UI DESIGNER </text>
</g>
</svg>
