<?xml version="1.0" encoding="utf-8"?>
<!-- Generator: Adobe Illustrator 19.1.0, SVG Export Plug-In . SVG Version: 6.00 Build 0)  -->
<svg version="1.1" id="Layer_1" xmlns="http://www.w3.org/2000/svg" xmlns:xlink="http://www.w3.org/1999/xlink" x="0px" y="0px"
	 viewBox="-43 7 872.8 558.7" style="enable-background:new -43 7 872.8 558.7;" xml:space="preserve">
<style type="text/css">
	.st0{opacity:0.47;fill:#FFC7BB;enable-background:new    ;}
	.st1{fill:#ECF0F1;}
	.st2{opacity:0.5;fill:#773C0C;enable-background:new    ;}
	.st3{opacity:0.22;enable-background:new    ;}
	.st4{fill:#34495E;}
	.st5{fill:#16A085;}
	.st6{fill:#E67E22;}
	.st7{opacity:0.8;}
	.st8{opacity:0.61;enable-background:new    ;}
	.st9{opacity:0.54;fill:#7F8C8D;enable-background:new    ;}
	.st10{opacity:0.52;enable-background:new    ;}
	.st11{clip-path:url(#SVGID_2_);fill:#BDC3C7;}
	.st12{fill:#7F8C8D;}
</style>
<g id="Layer_1_1_">
	<rect x="-43" y="7.4" class="st0" width="872.8" height="558.3"/>
	<g>
		<ellipse class="st1" cx="664.5" cy="288.3" rx="39.6" ry="38.6"/>
		<ellipse class="st2" cx="664.7" cy="288.1" rx="29.5" ry="28.8"/>
		<path class="st3" d="M657.8,274.7c16.3,0,29.5,12.9,29.5,28.8c0,1.1-0.1,2.2-0.2,3.3c4.4-5,7-11.5,7-18.6
			c0-15.9-13.2-28.8-29.5-28.8c-15.2,0-27.7,11.2-29.3,25.5C640.7,278.6,648.8,274.7,657.8,274.7z"/>
		<path class="st1" d="M710.6,319.6l-3.3,3.9c-1.1,1.2-2.9,1.4-4.2,0.3l-14.6-12.5c-1.2-1.1-1.4-2.9-0.3-4.2l3.3-3.9
			c1.1-1.2,2.9-1.4,4.2-0.3l14.6,12.5C711.5,316.5,711.6,318.4,710.6,319.6z"/>
	</g>
	<g>
		<g>
			
				<rect x="209.1" y="332.2" transform="matrix(0.351 -0.9364 0.9364 0.351 -227.8138 453.817)" class="st4" width="8.8" height="118.2"/>
			
				<rect x="212.7" y="331.1" transform="matrix(0.351 -0.9364 0.9364 0.351 -226.5585 453.4585)" class="st5" width="2.2" height="118.2"/>
		</g>
		<polygon class="st1" points="159.8,366.3 156.8,374.6 148.6,366.9 		"/>
		<polygon class="st6" points="154.1,366.4 152.5,370.6 148.3,366.6 		"/>
	</g>
	<g class="st7">
		<path class="st4" d="M145.5,180.6c-1.1-3.6-5-5.7-8.6-4.6l-90.1,27.7c-3.6,1.1-5.7,5-4.6,8.6l38,123.5c1.1,3.6,5,5.7,8.6,4.6
			l90.1-27.7c3.6-1.1,5.7-5,4.6-8.6L145.5,180.6z M177.4,304.8L85.6,333L47.8,209.7l91.8-28.2L177.4,304.8z"/>
		
			<rect x="64.6" y="192.8" transform="matrix(-0.9558 0.2939 -0.2939 -0.9558 295.8537 470.1486)" class="st1" width="96" height="129"/>
		<path class="st5" d="M133.3,325.8l-2.4,0.7c-1,0.3-2-0.3-2.3-1.2l-0.5-1.8c-0.3-1,0.3-2,1.2-2.3l2.4-0.7c1-0.3,2,0.3,2.3,1.2
			l0.5,1.8C134.8,324.4,134.3,325.5,133.3,325.8z"/>
	</g>
	<g>
		<path class="st8" d="M133.4,435.8h-31.3c-4.1,0-7.5-3.4-7.5-7.5v-70.1c0-4.1,3.4-7.5,7.5-7.5h31.3c4.1,0,7.5,3.4,7.5,7.5v70.1
			C140.9,432.4,137.5,435.8,133.4,435.8z"/>
		<rect x="99.3" y="358.2" class="st1" width="36.8" height="67.7"/>
		<ellipse class="st1" cx="117.9" cy="353.5" rx="1.2" ry="1.1"/>
		<ellipse class="st1" cx="116.6" cy="431" rx="2.9" ry="2.7"/>
		<path class="st1" d="M125.9,356.8h-16.4c-0.2,0-0.4-0.2-0.4-0.4v-0.7c0-0.2,0.2-0.4,0.4-0.4h16.4c0.2,0,0.4,0.2,0.4,0.4v0.7
			C126.3,356.7,126.1,356.8,125.9,356.8z"/>
	</g>
</g>
<g id="Layer_2">
	<g id="laptop_1_">
		<path class="st9" d="M579.4,372.4H216.7c-3.7,0-6.8-3-6.8-6.8V164.3c0-3.7,3-6.8,6.8-6.8h362.7c3.7,0,6.8,3,6.8,6.8v201.2
			C586.2,369.3,583.1,372.4,579.4,372.4z"/>
		<g class="st10">
			<g>
				<g>
					<defs>
						<path id="SVGID_1_" d="M584.5,193.4l-373.8,149c-3.3,1.3-6.9-1.2-6.8-4.8l6.1-179c0.1-2.7,2.3-4.8,5-4.8h366.2
							c2.6,0,4.8,2.1,4.9,4.7l1.5,30C587.7,190.7,586.5,192.6,584.5,193.4z"/>
					</defs>
					<clipPath id="SVGID_2_">
						<use xlink:href="#SVGID_1_"  style="overflow:visible;"/>
					</clipPath>
					<path class="st11" d="M569.2,360.4l-340.3,2c-10.4,0.1-18.8-8.3-18.9-18.7l-0.9-163.4c-0.1-10.4,10.9-23,21.2-23.1H568
						c10.4-0.1,18.8,8.3,18.9,18.7l1,165.6C587.9,351.9,579.5,360.4,569.2,360.4z"/>
				</g>
			</g>
		</g>
		<rect x="328.2" y="278.5" class="st1" width="135.6" height="71.8"/>
		<g>
			<g>
				<rect x="529.3" y="170.9" class="st1" width="27.8" height="12.1"/>
			</g>
			<g>
				<rect x="499.1" y="170.9" class="st1" width="27.8" height="12.1"/>
			</g>
			<g>
				<rect x="468.9" y="170.9" class="st1" width="27.8" height="12.1"/>
			</g>
			<g>
				<rect x="438.7" y="170.9" class="st1" width="27.8" height="12.1"/>
			</g>
			<g>
				<rect x="408.4" y="170.9" class="st1" width="27.8" height="12.1"/>
			</g>
			<g>
				<rect x="378.2" y="170.9" class="st1" width="27.8" height="12.1"/>
			</g>
			<g>
				<rect x="348" y="170.9" class="st1" width="27.8" height="12.1"/>
			</g>
			<g>
				<rect x="317.8" y="170.9" class="st1" width="27.8" height="12.1"/>
			</g>
			<g>
				<rect x="287.6" y="170.9" class="st1" width="27.8" height="12.1"/>
			</g>
			<g>
				<rect x="257.4" y="170.9" class="st1" width="27.8" height="12.1"/>
			</g>
			<g>
				<rect x="227.2" y="170.9" class="st1" width="27.8" height="12.1"/>
			</g>
		</g>
		<g>
			<g>
				<rect x="499.1" y="187.3" class="st1" width="58" height="14.5"/>
			</g>
			<g>
				<rect x="499.1" y="187.3" class="st1" width="27.8" height="14.5"/>
			</g>
			<g>
				<rect x="468.9" y="187.3" class="st1" width="27.8" height="14.5"/>
			</g>
			<g>
				<rect x="438.7" y="187.3" class="st1" width="27.8" height="14.5"/>
			</g>
			<g>
				<rect x="408.4" y="187.3" class="st1" width="27.8" height="14.5"/>
			</g>
			<g>
				<rect x="378.2" y="187.3" class="st1" width="27.8" height="14.5"/>
			</g>
			<g>
				<rect x="348" y="187.3" class="st1" width="27.8" height="14.5"/>
			</g>
			<g>
				<rect x="317.8" y="187.3" class="st1" width="27.8" height="14.5"/>
			</g>
			<g>
				<rect x="287.6" y="187.3" class="st1" width="27.8" height="14.5"/>
			</g>
			<g>
				<rect x="257.4" y="187.3" class="st1" width="27.8" height="14.5"/>
			</g>
			<g>
				<rect x="227.2" y="187.3" class="st1" width="27.8" height="14.5"/>
			</g>
		</g>
		<g>
			<g>
				<rect x="518.8" y="206.2" class="st1" width="38.2" height="14.5"/>
			</g>
			<g>
				<rect x="485.7" y="206.2" class="st1" width="27.8" height="14.5"/>
			</g>
			<g>
				<rect x="454.2" y="206.2" class="st1" width="27.8" height="14.5"/>
			</g>
			<g>
				<rect x="423.3" y="206.2" class="st1" width="27.8" height="14.5"/>
			</g>
			<g>
				<rect x="391.9" y="206.2" class="st1" width="27.8" height="14.5"/>
			</g>
			<g>
				<rect x="361.7" y="206.2" class="st1" width="27.8" height="14.5"/>
			</g>
			<g>
				<rect x="330.9" y="206.2" class="st1" width="27.8" height="14.5"/>
			</g>
			<g>
				<rect x="299.8" y="206.2" class="st1" width="27.8" height="14.5"/>
			</g>
			<g>
				<rect x="269.2" y="206.2" class="st1" width="27.8" height="14.5"/>
			</g>
			<g>
				<rect x="227.2" y="206.2" class="st1" width="35.7" height="14.5"/>
			</g>
		</g>
		<g>
			<g>
				<rect x="499.1" y="224.1" class="st1" width="58" height="14.5"/>
			</g>
			<g>
				<rect x="499.1" y="224.1" class="st1" width="27.8" height="14.5"/>
			</g>
			<g>
				<rect x="467.7" y="224.1" class="st1" width="27.8" height="14.5"/>
			</g>
			<g>
				<rect x="436.3" y="224.1" class="st1" width="27.8" height="14.5"/>
			</g>
			<g>
				<rect x="406.1" y="224.1" class="st1" width="27.8" height="14.5"/>
			</g>
			<g>
				<rect x="375.3" y="224.1" class="st1" width="27.8" height="14.5"/>
			</g>
			<g>
				<rect x="345.1" y="224.1" class="st1" width="27.8" height="14.5"/>
			</g>
			<g>
				<rect x="314.3" y="224.1" class="st1" width="27.8" height="14.5"/>
			</g>
			<g>
				<rect x="278.1" y="224.1" class="st1" width="31.3" height="14.5"/>
			</g>
			<g>
				<rect x="227.2" y="224.1" class="st1" width="45.3" height="14.5"/>
			</g>
		</g>
		<g>
			<g>
				<rect x="529.1" y="242.7" class="st1" width="27.8" height="14.5"/>
			</g>
			<g>
				<rect x="496.7" y="242.7" class="st1" width="27.8" height="14.5"/>
			</g>
			<g>
				<rect x="462.3" y="242.7" class="st1" width="29.6" height="14.5"/>
			</g>
			<g>
				<rect x="428.3" y="242.7" class="st1" width="27.8" height="14.5"/>
			</g>
			<g>
				<rect x="398.1" y="242.7" class="st1" width="27.8" height="14.5"/>
			</g>
			<g>
				<rect x="367.3" y="242.7" class="st1" width="27.8" height="14.5"/>
			</g>
			<g>
				<rect x="337.1" y="242.7" class="st1" width="27.8" height="14.5"/>
			</g>
			<g>
				<rect x="308.8" y="242.7" class="st1" width="149.8" height="14.5"/>
			</g>
			<g>
				<rect x="255" y="242.7" class="st1" width="22.3" height="14.5"/>
			</g>
			<g>
				<rect x="280.8" y="242.7" class="st1" width="22.3" height="14.5"/>
			</g>
			<g>
				<rect x="227" y="242.7" class="st1" width="25.7" height="14.5"/>
			</g>
		</g>
		<path class="st1" d="M590,157.2H206.2c-2.6,0-4.7-2.1-4.7-4.7V146c0-2.6,2.1-4.7,4.7-4.7H590c2.6,0,4.7,2.1,4.7,4.7v6.5
			C594.8,155.1,592.7,157.2,590,157.2z"/>
	</g>
	<g id="mouse_1_">
		<path class="st1" d="M657.7,372.4h-2.2v89h2.2c12.9,0,23.8-10.7,23.8-23.5v-42C681.5,383,670.5,372.4,657.7,372.4z"/>
		<path class="st12" d="M651.9,372.4h3.6v89h-3.6c-12.9,0-23.4-10.7-23.4-23.5v-42C628.5,383,639,372.4,651.9,372.4z"/>
		<ellipse cx="655.1" cy="385.2" rx="5" ry="4.7"/>
	</g>
</g>
</svg>
