<?xml version="1.0" encoding="iso-8859-1"?>
<!-- Generator: Adobe Illustrator 19.1.0, SVG Export Plug-In . SVG Version: 6.00 Build 0)  -->
<svg version="1.1" id="Layer_1" xmlns="http://www.w3.org/2000/svg" xmlns:xlink="http://www.w3.org/1999/xlink" x="0px" y="0px"
	 viewBox="0 0 130 130" style="enable-background:new 0 0 130 130;" xml:space="preserve">
<g>
	<circle style="fill:#FFC7BB;" cx="-1871.939" cy="76.036" r="65"/>
	<g>
		<path style="fill:#FFFFFF;" d="M-1882.284,96.425l1.05,0.36c1.352,0.464,2.831-0.282,3.287-1.657l15.086-45.51
			c0.456-1.375-0.277-2.88-1.63-3.343l-1.05-0.36c-1.352-0.464-2.831,0.282-3.287,1.657l-15.086,45.51
			C-1884.369,94.457-1883.636,95.961-1882.284,96.425z"/>
		<path style="fill:#FFFFFF;" d="M-1890.643,90.525c7.091,1.492,5.048-5.339,5.048-5.339l-11.972-11.461l11.733-12.54
			c0.858-5.865-5.35-4.202-5.35-4.202l-16.415,17.071L-1890.643,90.525z"/>
		<path style="fill:#FFFFFF;" d="M-1857.617,57.98c-7.119-1.348-4.942,5.44-4.942,5.44l12.195,11.216l-11.484,12.776
			c-0.742,5.881,5.432,4.092,5.432,4.092l16.076-17.401L-1857.617,57.98z"/>
	</g>
</g>
<g>
	<circle style="fill:#FFC7BB;" cx="64.561" cy="64.527" r="65"/>
	<g>
		<g>
			<g>
				<g>
					<path style="fill:#747574;" d="M31.982,76H100V36.608c0,0,0.513-1.762-0.77-1.892c-1.283-0.131-65.836,0-65.836,0
						s-1.348,0.576-1.604,1.881C31.533,37.901,31.982,76,31.982,76z"/>
					<polygon style="fill:#EBE6E4;" points="34.036,37 98,37 98,74 34.549,74 					"/>
				</g>
				<rect x="34.199" y="37.704" style="fill:#FFFFFF;" width="64.168" height="36.022"/>
			</g>
			<rect x="36.356" y="39.774" style="fill:#EBE6E4;" width="35.592" height="30.976"/>
			<rect x="74.343" y="39.774" style="fill:#ABE9C2;" width="21.867" height="10.267"/>
			<rect x="74.343" y="53.609" style="fill:#A6ABA8;" width="21.867" height="17.141"/>
		</g>
		<g>
			<polygon style="fill:#EBE6E4;" points="58.99,85 73.769,85 75.616,92 57.461,92 			"/>
			<path style="fill:#FFFFFF;" d="M31.982,76H100v7.593c0,0,0.389,1.958-1.395,2.284s-64.588,0-64.588,0s-1.941,0.119-2.132-1.643
				C31.693,82.472,31.982,76,31.982,76z"/>
			<rect x="52" y="92" style="fill:#FFFFFF;" width="29" height="3"/>
		</g>
	</g>
</g>
<g>
	<circle style="fill:#FFC7BB;" cx="215.302" cy="65.306" r="65"/>
	<path style="fill:#908F8E;" d="M234.79,28c0,0-7.335,0-14.67,0s-14.67,0-14.67,0S202,28.19,202,31.653s0,62.57,0,62.57
		s0.541,4.618,4.055,4.948c1.524,0.143,6.784,0.162,14.119,0.138c7.335,0.024,12.393,0.005,13.917-0.138
		c3.515-0.33,3.908-4.948,3.908-4.948s0-59.107,0-62.57S234.79,28,234.79,28z"/>
	<rect x="204.218" y="38.111" style="fill:#FCFCFC;" width="31.612" height="49.975"/>
	<ellipse style="fill:#FCFCFC;" cx="221.064" cy="92.732" rx="3.132" ry="2.837"/>
	<path style="fill:#FCFCFC;" d="M227.111,34.325h-10.982c-0.115,0-0.208-0.094-0.208-0.208v-0.903c0-0.115,0.094-0.208,0.208-0.208
		h10.982c0.115,0,0.208,0.094,0.208,0.208v0.903C227.32,34.231,227.226,34.325,227.111,34.325z"/>
	<ellipse style="fill:#FFFFFF;" cx="212.858" cy="33.665" rx="0.947" ry="0.858"/>
</g>
</svg>
