<?xml version="1.0" encoding="utf-8"?>
<!-- Generator: Adobe Illustrator 19.1.0, SVG Export Plug-In . SVG Version: 6.00 Build 0)  -->
<svg version="1.1" id="Layer_1" xmlns="http://www.w3.org/2000/svg" xmlns:xlink="http://www.w3.org/1999/xlink" x="0px" y="0px"
	 viewBox="-414 216 130 130" style="enable-background:new -414 216 130 130;" xml:space="preserve">
<style type="text/css">
	.st0{fill:#FFC7BB;}
	.st1{fill:#FFFFFF;}
	.st2{fill:#908F8E;}
	.st3{fill:#FCFCFC;}
</style>
<g>
	<circle class="st0" cx="-2435.9" cy="292" r="65"/>
	<g>
		<path class="st1" d="M-2446.3,312.4l1.1,0.4c1.4,0.5,2.8-0.3,3.3-1.7l15.1-45.5c0.5-1.4-0.3-2.9-1.6-3.3l-1.1-0.4
			c-1.4-0.5-2.8,0.3-3.3,1.7l-15.1,45.5C-2448.4,310.5-2447.6,312-2446.3,312.4z"/>
		<path class="st1" d="M-2454.6,306.5c7.1,1.5,5-5.3,5-5.3l-12-11.5l11.7-12.5c0.9-5.9-5.4-4.2-5.4-4.2l-16.4,17.1L-2454.6,306.5z"
			/>
		<path class="st1" d="M-2421.6,274c-7.1-1.3-4.9,5.4-4.9,5.4l12.2,11.2l-11.5,12.8c-0.7,5.9,5.4,4.1,5.4,4.1l16.1-17.4L-2421.6,274
			z"/>
	</g>
</g>
<circle class="st0" cx="-349" cy="281.3" r="65"/>
<path class="st2" d="M-332.9,244.1c0,0-7.3,0-14.7,0s-14.7,0-14.7,0s-3.4,0.2-3.4,3.7s0,62.6,0,62.6s0.5,4.6,4.1,4.9
	c1.5,0.1,6.8,0.2,14.1,0.1c7.3,0,12.4,0,13.9-0.1c3.5-0.3,3.9-4.9,3.9-4.9s0-59.1,0-62.6S-332.9,244.1-332.9,244.1z"/>
<rect x="-363.5" y="254.2" class="st3" width="31.6" height="50"/>
<ellipse class="st3" cx="-346.6" cy="308.8" rx="3.1" ry="2.8"/>
<path class="st3" d="M-340.6,250.4h-11c-0.1,0-0.2-0.1-0.2-0.2v-0.9c0-0.1,0.1-0.2,0.2-0.2h11c0.1,0,0.2,0.1,0.2,0.2v0.9
	C-340.4,250.3-340.5,250.4-340.6,250.4z"/>
<ellipse class="st1" cx="-354.8" cy="249.8" rx="0.9" ry="0.9"/>
</svg>
