<?xml version="1.0" encoding="utf-8"?>
<!-- Generator: Adobe Illustrator 19.1.0, SVG Export Plug-In . SVG Version: 6.00 Build 0)  -->
<svg version="1.1" xmlns="http://www.w3.org/2000/svg" xmlns:xlink="http://www.w3.org/1999/xlink" x="0px" y="0px"
	 viewBox="0 0 1400 2825" style="enable-background:new 0 0 1400 2825;" xml:space="preserve">
<style type="text/css">
	.st0{fill:#FFC7BB;stroke:#D1FFA0;stroke-miterlimit:10;}
	.st1{fill:#6FC4E2;}
</style>
<g id="Layer_1">
	<rect class="st0" width="1400" height="2825"/>
	
		<image style="overflow:visible;" width="375" height="667" xlink:href="../../../Dropbox/Bloc-Pravi/portfolio/account_paycrave.jpg"  transform="matrix(0.9694 0 0 0.9694 2139.9019 2232.196)">
	</image>
	<polygon class="st1" points="3,720.2 3,2313 1401,1829.1 1401,236.2 	"/>
	
		<image style="overflow:visible;" width="375" height="667" xlink:href="../../../Dropbox/Bloc-Pravi/portfolio/Paycrave homepage.jpg"  transform="matrix(1.3333 0 0 1.3333 127.6961 0)">
	</image>
	
		<image style="overflow:visible;" width="375" height="667" xlink:href="../../../Dropbox/Bloc-Pravi/portfolio/Paycrave - Sign In .jpg"  transform="matrix(1.3333 0 0 1.3333 747.853 0)">
	</image>
	
		<image style="overflow:visible;" width="375" height="667" xlink:href="../../../Dropbox/Bloc-Pravi/portfolio/List/Map view w zipcode.jpg"  transform="matrix(1.3333 0 0 1.3333 127.5196 972.4608)">
	</image>
	
		<image style="overflow:visible;" width="375" height="667" xlink:href="../../../Dropbox/Bloc-Pravi/portfolio/First page List View .jpg"  transform="matrix(1.3333 0 0 1.3333 749.6765 972.1274)">
	</image>
	
		<image style="overflow:visible;" width="375" height="667" xlink:href="../../../Dropbox/Bloc-Pravi/portfolio/menu_paycrave.jpg"  transform="matrix(1.3333 0 0 1.3333 124.2168 1935.6666)">
	</image>
	
		<image style="overflow:visible;" width="375" height="667" xlink:href="../../../Dropbox/Bloc-Pravi/portfolio/Detail View .png"  transform="matrix(1.3333 0 0 1.3333 749.6961 1935.6666)">
	</image>
</g>
<g id="Layer_2">
	<g>
	</g>
	<g>
	</g>
	<g>
	</g>
	<g>
	</g>
	<g>
	</g>
	<g>
	</g>
	<g>
	</g>
	<g>
	</g>
	<g>
	</g>
	<g>
	</g>
	<g>
	</g>
	<g>
	</g>
	<g>
	</g>
	<g>
	</g>
	<g>
	</g>
</g>
</svg>
