<?xml version="1.0" encoding="utf-8"?>
<!-- Generator: Adobe Illustrator 19.1.0, SVG Export Plug-In . SVG Version: 6.00 Build 0)  -->
<svg version="1.1" id="Layer_1" xmlns="http://www.w3.org/2000/svg" xmlns:xlink="http://www.w3.org/1999/xlink" x="0px" y="0px"
	 viewBox="0 0 130 129.9" style="enable-background:new 0 0 130 129.9;" xml:space="preserve">
<style type="text/css">
	.st0{fill:#FFC7BB;}
	.st1{fill:#908F8E;}
	.st2{fill:#FCFCFC;}
	.st3{fill:#FFFFFF;}
</style>
<circle class="st0" cx="65" cy="65" r="65"/>
<g>
	<path class="st1" d="M80.5,23.5c0,0-7.6,0-15.2,0s-15.2,0-15.2,0s-3.7,0.7-3.7,4.7s0,72.1,0,72.1s0.6,5.3,4.2,5.7
		c1.6,0.2,7,0.2,14.6,0.2c7.6,0,12.7,0,14.2-0.2c3.6-0.4,3.9-5.7,3.9-5.7s0-68.1,0-72.1S80.5,23.5,80.5,23.5z"/>
	<rect x="49.2" y="36.6" class="st2" width="31.7" height="53.7"/>
	<ellipse class="st2" cx="65.1" cy="99.8" rx="3.4" ry="3.3"/>
	<path class="st2" d="M73.9,31.3h-12c-0.1,0-0.2-0.1-0.2-0.2V30c0-0.1,0.1-0.2,0.2-0.2h12c0.1,0,0.2,0.1,0.2,0.2v1.1
		C74.1,31.2,74,31.3,73.9,31.3z"/>
	<ellipse class="st3" cx="58.4" cy="30.6" rx="1" ry="1"/>
</g>
<g>
</g>
<g>
</g>
<g>
</g>
<g>
</g>
<g>
</g>
<g>
</g>
<g>
</g>
<g>
</g>
<g>
</g>
<g>
</g>
<g>
</g>
<g>
</g>
<g>
</g>
<g>
</g>
<g>
</g>
</svg>
